<svg width="123" height="123" viewBox="0 0 123 123" fill="none" xmlns="http://www.w3.org/2000/svg">
<path d="M83.3226 7.93559C61.444 7.93559 43.6453 25.7343 43.6453 47.6129C43.6453 69.4915 61.444 87.2903 83.3226 87.2903C105.201 87.2903 123 69.4915 123 47.6129C123 25.7343 105.201 7.93559 83.3226 7.93559ZM83.3226 83.3226C63.6332 83.3226 47.6129 67.3024 47.6129 47.6129C47.6129 27.9235 63.6332 11.9032 83.3226 11.9032C103.012 11.9032 119.032 27.9235 119.032 47.6129C119.032 67.3024 103.012 83.3226 83.3226 83.3226Z" fill="#B3A454"/>
<path d="M83.3227 41.6613C80.0408 41.6613 77.371 44.3311 77.371 47.6129C77.371 50.8948 80.0408 53.5646 83.3227 53.5646C86.6045 53.5646 89.2743 50.8948 89.2743 47.6129C89.2743 44.3311 86.6045 41.6613 83.3227 41.6613ZM83.3227 49.5969C82.2279 49.5969 81.3387 48.7077 81.3387 47.6129C81.3387 46.5182 82.2279 45.629 83.3227 45.629C84.4174 45.629 85.3066 46.5182 85.3066 47.6129C85.3066 48.7077 84.4174 49.5969 83.3227 49.5969Z" fill="#B3A454"/>
<path d="M47.6129 81.3387H29.7581C28.6616 81.3387 27.7741 82.2259 27.7741 83.3227V92.5793C27.7741 93.6758 28.6613 94.5633 29.7581 94.5633C30.8548 94.5633 31.742 93.6761 31.742 92.5793V85.3063H45.6293V91.7287C45.6293 92.8252 46.5165 93.7127 47.6132 93.7127C48.71 93.7127 49.5972 92.8255 49.5972 91.7287V83.3227C49.5969 82.2262 48.7094 81.3387 47.6129 81.3387Z" fill="#B3A454"/>
<path d="M61.1886 94.9431L56.8914 94.2358C55.7909 94.044 54.7871 94.7897 54.611 95.869C54.4329 96.9503 55.1632 97.9715 56.2442 98.1494L60.6981 98.8834C60.8041 98.9009 60.9128 98.9108 61.0215 98.9108C67.849 98.9108 73.4034 103.52 73.4034 109.185V117.048H3.96765V109.185C3.96765 103.52 9.52201 98.9108 16.3495 98.9113C16.4576 98.9113 16.5663 98.9015 16.673 98.884L21.4351 98.0974C22.5165 97.9189 23.2465 96.898 23.0683 95.817C22.8899 94.7377 21.8905 93.9879 20.7879 94.1838L16.183 94.9431C7.24365 95.0225 0 101.381 0 109.185V119.032C0 120.129 0.887221 121.016 1.98397 121.016H75.3874C76.4838 121.016 77.3713 120.129 77.3713 119.032V109.185C77.371 101.381 70.1274 95.0225 61.1886 94.9431Z" fill="#B3A454"/>
<path d="M57.5322 73.1398C56.4358 73.1398 55.5482 74.027 55.5482 75.1238C55.5482 78.5509 52.7605 81.3387 49.3333 81.3387H28.0377C24.6106 81.3387 21.8228 78.5509 21.8228 75.1238V47.6129H44.9318C46.0283 47.6129 46.9158 46.7257 46.9158 45.629C46.9158 44.5322 46.0286 43.645 44.9318 43.645H19.8388C18.7424 43.645 17.8549 44.5322 17.8549 45.629V75.1238C17.8549 80.738 22.4232 85.3066 28.0377 85.3066H49.3336C54.9479 85.3066 59.5165 80.7383 59.5165 75.1238C59.5162 74.0273 58.629 73.1398 57.5322 73.1398Z" fill="#B3A454"/>
<path d="M41.5974 92.7441C41.3708 91.8682 40.582 91.2582 39.6774 91.2582H21.8225C20.7261 91.2582 19.8386 92.1455 19.8386 93.2422V103.161C19.8386 103.865 20.2105 104.515 20.817 104.872C21.1271 105.054 21.4738 105.145 21.8222 105.145C22.1535 105.145 22.4869 105.062 22.785 104.895L40.6399 94.976C41.4306 94.538 41.8241 93.62 41.5974 92.7441ZM23.8065 99.7902V95.2259H32.0208L23.8065 99.7902Z" fill="#B3A454"/>
<path d="M55.5485 91.2582H37.6937C36.789 91.2582 36.0003 91.8682 35.7736 92.7441C35.5469 93.62 35.9401 94.538 36.7309 94.976L54.5857 104.895C54.8839 105.062 55.2172 105.145 55.5485 105.145C55.8972 105.145 56.2439 105.054 56.5537 104.872C57.1602 104.515 57.5322 103.865 57.5322 103.161V93.2422C57.5322 92.1455 56.645 91.2582 55.5485 91.2582ZM53.5645 99.7902L45.3503 95.2259H53.5645V99.7902Z" fill="#B3A454"/>
<path d="M67.8563 12.4906C64.9717 6.10855 58.5822 1.98397 51.5806 1.98397C46.6944 1.98397 42.0333 4.01444 38.6855 7.51159C35.3378 4.01444 30.6767 1.98397 25.7905 1.98397C15.9444 1.98397 7.93561 9.99279 7.93561 19.8388C7.93561 26.6875 11.7873 32.8251 17.8549 35.828V45.6293C17.8549 46.7257 18.7421 47.6132 19.8388 47.6132H44.9318C46.0283 47.6132 46.9158 46.726 46.9158 45.6293C46.9158 44.5325 46.0286 43.6453 44.9318 43.6453H21.8228V34.5452C21.8228 33.7374 21.3329 33.0111 20.5848 32.7066C15.3109 30.57 11.9033 25.519 11.9033 19.8388C11.9033 12.1819 18.1336 5.95162 25.7905 5.95162C30.2443 5.95162 34.4619 8.12535 37.0738 11.7678C37.8178 12.8064 39.5536 12.8064 40.2975 11.7678C42.9092 8.12535 47.1271 5.95162 51.5809 5.95162C57.0266 5.95162 61.9983 9.15991 64.2415 14.1258C64.6928 15.1217 65.8668 15.5689 66.8665 15.1156C67.8645 14.6643 68.3076 13.4902 67.8563 12.4906Z" fill="#B3A454"/>
<path d="M39.0961 68.033C38.8947 67.8275 34.0532 63.081 28.8709 65.677C28.4896 65.8685 28.0188 66.1129 27.4762 66.3937C24.4905 67.9435 15.4158 72.6667 12.3839 71.4287C12.0718 71.3029 11.9146 71.1305 11.8006 70.7914C11.4534 69.7534 10.3395 69.1893 9.29155 69.538C8.2535 69.8833 7.69147 71.0065 8.03816 72.0471C8.51679 73.4845 9.50485 74.5443 10.8919 75.1063C11.6957 75.4318 12.6045 75.5789 13.5925 75.5789C17.9635 75.5768 23.9012 72.719 29.3027 69.9158C29.8261 69.6444 30.2791 69.4099 30.6453 69.2259C33.2358 67.924 36.2116 70.7624 36.295 70.8417C37.0718 71.6144 38.3231 71.6109 39.0961 70.8376C39.8709 70.0634 39.8709 68.8077 39.0961 68.033Z" fill="#B3A454"/>
<path d="M54.0039 68.459C52.4387 67.7151 51.0127 66.9731 49.8968 66.3957C49.3548 66.113 48.882 65.8688 48.5001 65.677C43.3198 63.0866 38.4762 67.8275 38.2749 68.033C37.5001 68.8077 37.5001 70.0634 38.2749 70.8382C39.0496 71.613 40.3053 71.613 41.0801 70.8382C41.1112 70.8089 44.112 67.9226 46.7257 69.2262C47.0936 69.4102 47.5469 69.6447 48.0703 69.9161C49.217 70.5127 50.6875 71.2762 52.2995 72.0434C52.5747 72.1733 52.8653 72.2352 53.1501 72.2352C53.892 72.2352 54.6034 71.8184 54.944 71.1032C55.4145 70.1134 54.994 68.9298 54.0039 68.459Z" fill="#B3A454"/>
<path d="M83.3227 13.8872C82.2262 13.8872 81.3387 14.7744 81.3387 15.8712V19.8388C81.3387 20.9353 82.2259 21.8228 83.3227 21.8228C84.4194 21.8228 85.3066 20.9356 85.3066 19.8388V15.8709C85.3066 14.7744 84.4191 13.8872 83.3227 13.8872Z" fill="#B3A454"/>
<path d="M83.3227 73.4034C82.2262 73.4034 81.3387 74.2906 81.3387 75.3873V79.355C81.3387 80.4514 82.2259 81.339 83.3227 81.339C84.4194 81.339 85.3066 80.4517 85.3066 79.355V75.3873C85.3066 74.2906 84.4191 73.4034 83.3227 73.4034Z" fill="#B3A454"/>
<path d="M115.065 45.629H111.097C110.001 45.629 109.113 46.5162 109.113 47.6129C109.113 48.7097 110 49.5969 111.097 49.5969H115.065C116.161 49.5969 117.049 48.7097 117.049 47.6129C117.049 46.5162 116.161 45.629 115.065 45.629Z" fill="#B3A454"/>
<path d="M98.2096 22.0919C97.2657 21.5453 96.0512 21.8632 95.495 22.8065L81.6078 46.613C81.0574 47.5606 81.3771 48.7754 82.3224 49.3275C82.6363 49.5094 82.9809 49.5969 83.3204 49.5969C84.0024 49.5969 84.667 49.2444 85.037 48.6129L98.9242 24.8064C99.4749 23.8585 99.1549 22.644 98.2096 22.0919Z" fill="#B3A454"/>
<path d="M95.2259 45.629H79.355C78.2585 45.629 77.371 46.5162 77.371 47.6129C77.371 48.7097 78.2583 49.5969 79.355 49.5969H95.2259C96.3223 49.5969 97.2099 48.7097 97.2099 47.6129C97.2099 46.5162 96.3223 45.629 95.2259 45.629Z" fill="#B3A454"/>
</svg>
